<svg width="25" height="25" viewBox="0 0 25 25" fill="none" xmlns="http://www.w3.org/2000/svg">
<rect width="25" height="25" fill="white" style="mix-blend-mode:multiply"/>
<path d="M22.9765 7.23438C22.8521 6.77191 22.6083 6.35024 22.2696 6.01159C21.931 5.67294 21.5093 5.42917 21.0469 5.30469C19.3437 4.84375 12.5 4.84375 12.5 4.84375C12.5 4.84375 5.65623 4.84375 3.9531 5.30469C3.49063 5.42917 3.06897 5.67294 2.73032 6.01159C2.39166 6.35024 2.1479 6.77191 2.02341 7.23438C1.7054 8.9713 1.55108 10.7342 1.56248 12.5C1.55108 14.2658 1.7054 16.0287 2.02341 17.7656C2.1479 18.2281 2.39166 18.6498 2.73032 18.9884C3.06897 19.3271 3.49063 19.5708 3.9531 19.6953C5.65623 20.1562 12.5 20.1562 12.5 20.1562C12.5 20.1562 19.3437 20.1562 21.0469 19.6953C21.5093 19.5708 21.931 19.3271 22.2696 18.9884C22.6083 18.6498 22.8521 18.2281 22.9765 17.7656C23.2945 16.0287 23.4489 14.2658 23.4375 12.5C23.4489 10.7342 23.2945 8.9713 22.9765 7.23438ZM10.3125 15.7812V9.21875L15.9922 12.5L10.3125 15.7812Z" fill="#161616"/>
</svg>
