<svg width="24" height="24" viewBox="0 0 24 24" fill="none" xmlns="http://www.w3.org/2000/svg">
<path d="M2.89904 12.735C2.79973 12.5027 2.74854 12.2526 2.74854 12C2.74854 11.7473 2.79973 11.4973 2.89904 11.265C3.70704 9.34497 4.99904 7.72997 6.61504 6.61797C8.23104 5.50597 10.103 4.94497 12 5.00397C13.897 4.94497 15.768 5.50597 17.385 6.61797C19.002 7.72997 20.293 9.34497 21.101 11.265C21.2003 11.4973 21.2515 11.7473 21.2515 12C21.2515 12.2526 21.2003 12.5027 21.101 12.735C20.293 14.655 19.001 16.27 17.385 17.382C15.769 18.494 13.897 19.055 12 18.996C10.103 19.055 8.23204 18.494 6.61504 17.382C4.99804 16.27 3.70704 14.655 2.90004 12.735" stroke="black" stroke-width="1.5" stroke-linecap="round" stroke-linejoin="round"/>
<path d="M12 15.5C12.4596 15.5 12.9148 15.4095 13.3394 15.2336C13.764 15.0577 14.1499 14.7999 14.4749 14.4749C14.7999 14.1499 15.0577 13.764 15.2336 13.3394C15.4095 12.9148 15.5 12.4596 15.5 12C15.5 11.5404 15.4095 11.0852 15.2336 10.6606C15.0577 10.236 14.7999 9.85013 14.4749 9.52513C14.1499 9.20012 13.764 8.94231 13.3394 8.76642C12.9148 8.59053 12.4596 8.5 12 8.5C11.0717 8.5 10.1815 8.86875 9.52513 9.52513C8.86875 10.1815 8.5 11.0717 8.5 12C8.5 12.9283 8.86875 13.8185 9.52513 14.4749C10.1815 15.1313 11.0717 15.5 12 15.5Z" stroke="black" stroke-width="1.5" stroke-linecap="round" stroke-linejoin="round"/>
</svg>
