<svg width="25" height="24" viewBox="0 0 25 24" fill="none" xmlns="http://www.w3.org/2000/svg">
<g id="material-symbols:fork-spoon">
<path id="Vector" d="M6.10547 22V12.85C5.20547 12.6167 4.48047 12.1417 3.93047 11.425C3.38047 10.7083 3.10547 9.9 3.10547 9V2H5.10547V8H6.10547V2H8.10547V8H9.10547V2H11.1055V9C11.1055 9.9 10.8305 10.7083 10.2805 11.425C9.73047 12.1417 9.00547 12.6167 8.10547 12.85V22H6.10547ZM16.1055 22V12.475C15.2055 12.175 14.4805 11.546 13.9305 10.588C13.3805 9.63 13.1055 8.54233 13.1055 7.325C13.1055 5.84167 13.4971 4.58333 14.2805 3.55C15.0638 2.51667 16.0055 2 17.1055 2C18.2055 2 19.1471 2.52067 19.9305 3.562C20.7138 4.60333 21.1055 5.866 21.1055 7.35C21.1055 8.56667 20.8305 9.65 20.2805 10.6C19.7305 11.55 19.0055 12.175 18.1055 12.475V22H16.1055Z" fill="black"/>
</g>
</svg>
