<svg width="25" height="24" viewBox="0 0 25 24" fill="none" xmlns="http://www.w3.org/2000/svg">
<g id="material-symbols:location-city">
<path id="Vector" d="M3.10547 21V7H9.10547V5L12.1055 2L15.1055 5V11H21.1055V21H3.10547ZM5.10547 19H7.10547V17H5.10547V19ZM5.10547 15H7.10547V13H5.10547V15ZM5.10547 11H7.10547V9H5.10547V11ZM11.1055 19H13.1055V17H11.1055V19ZM11.1055 15H13.1055V13H11.1055V15ZM11.1055 11H13.1055V9H11.1055V11ZM11.1055 7H13.1055V5H11.1055V7ZM17.1055 19H19.1055V17H17.1055V19ZM17.1055 15H19.1055V13H17.1055V15Z" fill="black"/>
</g>
</svg>
