<svg width="15" height="12" viewBox="0 0 15 12" fill="none" xmlns="http://www.w3.org/2000/svg">
<path id="Vector" d="M0.292786 4.73201C0.480314 4.54454 0.734622 4.43922 0.999786 4.43922C1.26495 4.43922 1.51926 4.54454 1.70679 4.73201L5.24279 8.26801L12.3128 1.19701C12.4056 1.1041 12.5159 1.03039 12.6372 0.98008C12.7585 0.929772 12.8886 0.903855 13.0199 0.903809C13.1513 0.903762 13.2814 0.929587 13.4027 0.979809C13.5241 1.03003 13.6344 1.10367 13.7273 1.19651C13.8202 1.28936 13.8939 1.39959 13.9442 1.52092C13.9945 1.64226 14.0204 1.77231 14.0205 1.90366C14.0205 2.03501 13.9947 2.16508 13.9445 2.28645C13.8943 2.40781 13.8206 2.5181 13.7278 2.61101L5.24279 11.096L0.292786 6.14601C0.105315 5.95848 0 5.70418 0 5.43901C0 5.17385 0.105315 4.91954 0.292786 4.73201Z" fill="white"/>
</svg>
