<svg width="20" height="20" viewBox="0 0 20 20" fill="none" xmlns="http://www.w3.org/2000/svg">
<path d="M1.50856 8.1063C1.74297 7.87196 2.06086 7.74032 2.39231 7.74032C2.72377 7.74032 3.04165 7.87196 3.27606 8.1063L7.69606 12.5263L16.5336 3.68755C16.6496 3.57141 16.7874 3.47927 16.9391 3.41638C17.0907 3.3535 17.2533 3.3211 17.4175 3.32104C17.5817 3.32099 17.7443 3.35327 17.896 3.41605C18.0477 3.47882 18.1855 3.57087 18.3017 3.68692C18.4178 3.80298 18.51 3.94077 18.5729 4.09244C18.6357 4.2441 18.6681 4.40667 18.6682 4.57086C18.6682 4.73504 18.636 4.89763 18.5732 5.04934C18.5104 5.20105 18.4184 5.33891 18.3023 5.45505L7.69606 16.0613L1.50856 9.8738C1.27422 9.63939 1.14258 9.3215 1.14258 8.99005C1.14258 8.65859 1.27422 8.34071 1.50856 8.1063Z" fill="black"/>
</svg>
