<svg width="19" height="18" viewBox="0 0 19 18" fill="none" xmlns="http://www.w3.org/2000/svg">
<g id="solar:star-bold">
<path id="Vector" d="M6.9704 4.056C7.92064 2.352 8.39539 1.5 9.10564 1.5C9.8159 1.5 10.2906 2.352 11.2409 4.056L11.4869 4.497C11.7569 4.9815 11.8919 5.22375 12.1019 5.3835C12.3119 5.54325 12.5744 5.6025 13.0994 5.721L13.5764 5.829C15.4214 6.24675 16.3431 6.45525 16.5629 7.161C16.7819 7.866 16.1534 8.60175 14.8956 10.0725L14.5701 10.4528C14.2131 10.8705 14.0339 11.0798 13.9536 11.3377C13.8734 11.5965 13.9004 11.8755 13.9544 12.4327L14.0039 12.9405C14.1936 14.9032 14.2889 15.8843 13.7144 16.32C13.1399 16.7557 12.2759 16.3582 10.5494 15.5632L10.1016 15.3577C9.61115 15.1312 9.36589 15.0187 9.10564 15.0187C8.84539 15.0187 8.60014 15.1312 8.10964 15.3577L7.66264 15.5632C5.93539 16.3582 5.07139 16.7557 4.49764 16.3207C3.92239 15.8842 4.01764 14.9032 4.2074 12.9405L4.2569 12.4335C4.31089 11.8755 4.33789 11.5965 4.2569 11.3385C4.17739 11.0798 3.99815 10.8705 3.64115 10.4535L3.31565 10.0725C2.0579 8.6025 1.42939 7.86675 1.64839 7.161C1.86739 6.45525 2.79065 6.246 4.63564 5.829L5.11265 5.721C5.6369 5.6025 5.89864 5.54325 6.1094 5.3835C6.32015 5.22375 6.45439 4.9815 6.72439 4.497L6.9704 4.056Z" fill="black"/>
</g>
</svg>
