<svg width="25" height="24" viewBox="0 0 25 24" fill="none" xmlns="http://www.w3.org/2000/svg">
<g id="tdesign:time">
<path id="Vector" d="M12.1055 21C13.2874 21 14.4577 20.7672 15.5496 20.3149C16.6416 19.8626 17.6337 19.1997 18.4694 18.364C19.3052 17.5282 19.9681 16.5361 20.4204 15.4442C20.8727 14.3522 21.1055 13.1819 21.1055 12C21.1055 10.8181 20.8727 9.64778 20.4204 8.55585C19.9681 7.46392 19.3052 6.47177 18.4694 5.63604C17.6337 4.80031 16.6416 4.13738 15.5496 3.68508C14.4577 3.23279 13.2874 3 12.1055 3C9.71852 3 7.42934 3.94821 5.74151 5.63604C4.05368 7.32387 3.10547 9.61305 3.10547 12C3.10547 14.3869 4.05368 16.6761 5.74151 18.364C7.42934 20.0518 9.71852 21 12.1055 21ZM23.1055 12C23.1055 18.075 18.1805 23 12.1055 23C6.03047 23 1.10547 18.075 1.10547 12C1.10547 5.925 6.03047 1 12.1055 1C18.1805 1 23.1055 5.925 23.1055 12ZM15.1055 16.414L11.1055 12.414V5.5H13.1055V11.586L16.5195 15L15.1055 16.414Z" fill="black"/>
</g>
</svg>
