<svg width="24" height="24" viewBox="0 0 24 24" fill="none" xmlns="http://www.w3.org/2000/svg">
<path d="M22.5001 3.58905C22.5001 3.50079 22.4767 3.41412 22.4323 3.33782C22.388 3.26153 22.3242 3.19833 22.2475 3.15466C22.1708 3.11098 22.084 3.08838 21.9957 3.08915C21.9075 3.08992 21.821 3.11404 21.7451 3.15905C21.0409 3.57725 20.2766 3.88483 19.4791 4.07105C18.6072 3.23839 17.4466 2.77601 16.2411 2.78105C15.5863 2.78183 14.9387 2.91856 14.3395 3.18259C13.7403 3.44662 13.2024 3.83219 12.7599 4.3149C12.3175 4.7976 11.98 5.36692 11.769 5.9868C11.558 6.60669 11.478 7.26364 11.5341 7.91605C8.5113 7.59447 5.73781 6.09218 3.81707 3.73605C3.76581 3.67345 3.70013 3.62422 3.62565 3.59259C3.55118 3.56097 3.47014 3.54789 3.3895 3.55448C3.30886 3.56107 3.23102 3.58713 3.16267 3.63042C3.09432 3.67372 3.03749 3.73295 2.99707 3.80305C2.58319 4.52695 2.36502 5.34618 2.36407 6.18005C2.36146 7.09558 2.62631 7.99195 3.12607 8.75905L3.06607 8.72605C2.98783 8.68719 2.90077 8.66952 2.81357 8.67478C2.72637 8.68005 2.64208 8.70806 2.56907 8.75605C2.49266 8.8054 2.42995 8.87326 2.38677 8.95333C2.34359 9.0334 2.32133 9.12308 2.32207 9.21405C2.31807 9.33271 2.32541 9.45038 2.34407 9.56705C2.39184 10.2272 2.57847 10.8697 2.89176 11.4527C3.20505 12.0357 3.63794 12.5459 4.16207 12.95C4.09815 12.9689 4.03863 13.0003 3.98701 13.0424C3.9354 13.0846 3.89273 13.1366 3.86152 13.1955C3.83031 13.2544 3.81119 13.3189 3.80527 13.3853C3.79935 13.4517 3.80677 13.5186 3.82707 13.582C4.05778 14.3025 4.45898 14.9566 4.99659 15.4888C5.5342 16.021 6.19233 16.4156 6.91507 16.639C5.43951 17.465 3.74019 17.8021 2.06107 17.602C1.94856 17.588 1.83459 17.6126 1.73789 17.6718C1.64119 17.731 1.56749 17.8213 1.52889 17.928C1.49028 18.0346 1.48907 18.1512 1.52545 18.2586C1.56182 18.366 1.63363 18.4578 1.72907 18.519C3.73847 19.813 6.07808 20.5008 8.46807 20.5C11.1792 20.5298 13.8242 19.663 15.9918 18.0343C18.1594 16.4056 19.7281 14.1064 20.4541 11.494C20.7931 10.357 20.9661 9.17605 20.9681 7.98905C20.9681 7.86905 20.9671 7.74505 20.9651 7.61705C21.4852 7.08822 21.8901 6.45738 22.1543 5.76429C22.4185 5.0712 22.5362 4.3299 22.5001 3.58905ZM20.0761 7.12305C19.9941 7.22027 19.9523 7.34507 19.9591 7.47205C20.0131 8.73616 19.8563 10.0004 19.4951 11.213C18.8495 13.6291 17.4121 15.7587 15.4129 17.2611C13.4137 18.7636 10.9683 19.5519 8.46807 19.5C6.9421 19.5001 5.43151 19.1951 4.02507 18.603C5.67795 18.4195 7.24593 17.775 8.55007 16.743C8.63121 16.6793 8.69062 16.5919 8.72015 16.4931C8.74969 16.3942 8.7479 16.2886 8.71503 16.1907C8.68217 16.0929 8.61984 16.0076 8.53659 15.9466C8.45334 15.8857 8.35326 15.8519 8.25007 15.85C7.61003 15.8396 6.98357 15.6638 6.4316 15.3396C5.87962 15.0154 5.42092 14.554 5.10007 14C5.52507 14.001 5.94707 13.943 6.35407 13.826C6.46134 13.7946 6.55498 13.7281 6.62004 13.6372C6.6851 13.5463 6.71783 13.4363 6.71299 13.3246C6.70816 13.2129 6.66604 13.1061 6.59337 13.0212C6.5207 12.9362 6.42166 12.8781 6.31207 12.856C5.59648 12.7123 4.93918 12.3607 4.42246 11.8452C3.90573 11.3297 3.55253 10.6733 3.40707 9.95805C3.83169 10.096 4.2738 10.1728 4.72007 10.186C4.83013 10.1948 4.93975 10.1645 5.02971 10.1005C5.11967 10.0365 5.18423 9.94288 5.21207 9.83605C5.24474 9.73263 5.24289 9.6214 5.20682 9.51913C5.17074 9.41685 5.10239 9.32908 5.01207 9.26905C4.50357 8.93014 4.08692 8.47056 3.79935 7.93137C3.51178 7.39217 3.36223 6.79014 3.36407 6.17905C3.36407 5.76605 3.43107 5.35605 3.56407 4.96605C5.78143 7.35963 8.8456 8.79305 12.1041 8.96105C12.1819 8.96937 12.2606 8.95724 12.3323 8.92585C12.4041 8.89445 12.4664 8.84489 12.5131 8.78205C12.5627 8.72261 12.5978 8.65248 12.6157 8.57717C12.6335 8.50186 12.6337 8.42342 12.6161 8.34805C12.5497 8.0723 12.5161 7.78967 12.5161 7.50605C12.5171 6.51852 12.9098 5.57172 13.6079 4.87324C14.306 4.17477 15.2525 3.78163 16.2401 3.78005C16.7487 3.7786 17.2522 3.88262 17.7186 4.08555C18.1851 4.28848 18.6044 4.5859 18.9501 4.95905C19.0082 5.0209 19.0811 5.06694 19.1619 5.09283C19.2427 5.11872 19.3288 5.12362 19.4121 5.10705C20.1215 4.96676 20.8115 4.74147 21.4671 4.43605C21.2967 5.45535 20.8097 6.39513 20.0751 7.12205" fill="black"/>
</svg>
